<svg xmlns="http://www.w3.org/2000/svg" width="280" height="12" viewBox="0 0 280 12"><path fill="none" stroke="#FC6883" stroke-linecap="round" stroke-linejoin="round" stroke-width="2" d="M0 6 L5 1 L10 6 L15 11 L20 6 L25 1 L30 6 L35 11 L40 6 L45 1 L50 6 L55 11 L60 6 L65 1 L70 6 L75 11 L80 6 L85 1 L90 6 L95 11 L100 6 L105 1 L110 6 L115 11 L120 6 L125 1 L130 6 L135 11 L140 6 L145 1 L150 6 L155 11 L160 6 L165 1 L170 6 L175 11 L180 6 L185 1 L190 6 L195 11 L200 6 L205 1 L210 6 L215 11 L220 6 L225 1 L230 6 L235 11 L240 6 L245 1 L250 6 L255 11 L260 6 L265 1 L270 6 L275 11 L280 6"/></svg>