<svg xmlns="http://www.w3.org/2000/svg" viewBox="0 0 258.96 258.96"><defs><style>.cls-1{fill:#1a242d;}.cls-2,.cls-3,.cls-4{fill:#f1f4fb;}.cls-2{opacity:0.89;}.cls-4{opacity:0.71;}.cls-5{fill:#7c85b9;}.cls-6{fill:#d0ddf1;}.cls-7{fill:#9ab9e1;}.cls-8{fill:#bae2f0;}.cls-9{fill:#6f67af;}.cls-10{fill:#694c9f;}.cls-11{fill:#60ade0;}.cls-12{fill:#6ecff6;}.cls-13{fill:#4396d2;}.cls-14{fill:#0e5290;}.cls-15{fill:#3f75ba;}.cls-16{fill:#f1f4fa;}</style></defs><g id="Logo_Thick_White" data-name="Logo Thick White"><g id="Logo"><path class="cls-1" d="M243.48,129.48a113.24,113.24,0,0,1-2.57,24.09,113.52,113.52,0,0,1-14.4,35.69c-.1.17-.21.34-.32.51a114.05,114.05,0,0,1-193.42,0c-.59-.94-1.17-1.89-1.72-2.85-.47-.78-.92-1.57-1.34-2.36a112.48,112.48,0,0,1-11.66-31h0a114,114,0,1,1,225.43-24.09Z"/><g id="Stars"><circle class="cls-2" cx="28.55" cy="135.79" r="1.92"/><circle class="cls-2" cx="44.43" cy="120.34" r="2.34"/><circle class="cls-3" cx="47.87" cy="81.01" r="3.44"/><circle class="cls-3" cx="80.1" cy="93.11" r="3.49"/><circle class="cls-4" cx="55.96" cy="96.05" r="1.92"/><circle class="cls-2" cx="82.72" cy="75.34" r="2.37"/><circle class="cls-2" cx="65.43" cy="56.23" r="2.37"/><circle class="cls-4" cx="34.1" cy="104.94" r="2.37"/><circle class="cls-3" cx="195.47" cy="93.11" r="3.19"/><circle class="cls-4" cx="207.65" cy="67.45" r="2.37"/><circle class="cls-2" cx="187.24" cy="76.5" r="1.92"/><circle class="cls-2" cx="201.13" cy="48.58" r="2.34"/><circle class="cls-2" cx="224.97" cy="84.75" r="1.92"/><circle class="cls-4" cx="201.13" cy="118" r="1.92"/><circle class="cls-4" cx="220.06" cy="101.24" r="2.37"/><circle class="cls-2" cx="229.23" cy="122.69" r="2.34"/></g><g id="Smoke"><path class="cls-5" d="M143.85,63.51a25,25,0,0,1-2.17,1.31,25.7,25.7,0,0,1-24.4,0,25,25,0,0,1-2.17-1.31,23.08,23.08,0,0,1-2.93,7.7h0a23.42,23.42,0,0,1,5.75,13.54H141a23.42,23.42,0,0,1,5.75-13.54h0A23.08,23.08,0,0,1,143.85,63.51Z"/><path class="cls-6" d="M167.8,61.83a21,21,0,0,1-7.06-1.22h0a20.79,20.79,0,0,1-8.75-6c.31-.55.59-1.11.85-1.69a25.14,25.14,0,0,0,1.94-6.33,24.5,24.5,0,0,0,.37-4.31,23.59,23.59,0,0,0-.23-3.38l-.16.1a24.29,24.29,0,0,1-1.86,6,25.62,25.62,0,0,1-7.18,9.37c-.33.27-.66.53-1,.78s-.69.49-1,.73h0a23.54,23.54,0,0,1-3.29,1.85,25.67,25.67,0,0,1-21.76,0,23.54,23.54,0,0,1-3.29-1.85h0c-.35-.24-.7-.48-1-.73s-.67-.51-1-.78A25.62,25.62,0,0,1,106.06,45a24.29,24.29,0,0,1-1.86-6l-.16-.1a23.59,23.59,0,0,0-.23,3.38,24.5,24.5,0,0,0,.37,4.31,25.14,25.14,0,0,0,1.94,6.33c.26.58.54,1.14.85,1.69a20.79,20.79,0,0,1-8.75,6h0a21,21,0,0,1-7.06,1.22,20.74,20.74,0,0,1-12.87-4.45A20.86,20.86,0,0,0,96.4,67.9a21.55,21.55,0,0,0,3.13-.23,9.77,9.77,0,0,0,8.28,4.58,9.1,9.1,0,0,0,1.39-.1,9.54,9.54,0,0,0,3-.93,0,0,0,0,0,0,0,23.08,23.08,0,0,0,2.93-7.7,25,25,0,0,0,2.17,1.31,25.48,25.48,0,0,0,12.2,3.08h0a25.48,25.48,0,0,0,12.2-3.08,25,25,0,0,0,2.17-1.31,23.08,23.08,0,0,0,2.93,7.7,0,0,0,0,0,0,0,9.54,9.54,0,0,0,3,.93,9.1,9.1,0,0,0,1.39.1,9.77,9.77,0,0,0,8.28-4.58,21.55,21.55,0,0,0,3.13.23,20.86,20.86,0,0,0,18.11-10.52A20.74,20.74,0,0,1,167.8,61.83Z"/><path class="cls-3" d="M187.78,31.55a19.16,19.16,0,0,1-.35,2.41,20.79,20.79,0,0,1-3.83,8.35c-.18.24-.37.49-.58.72a20.45,20.45,0,0,1,.39,4,20.74,20.74,0,0,1-2.74,10.33,20.74,20.74,0,0,1-12.87,4.45,21,21,0,0,1-7.06-1.22h0a20.79,20.79,0,0,1-8.75-6c.31-.55.59-1.11.85-1.69a25.14,25.14,0,0,0,1.94-6.33,24.5,24.5,0,0,0,.37-4.31,23.59,23.59,0,0,0-.23-3.38,4.1,4.1,0,0,0-.06-.49c0,.2-.06.4-.1.59a24.29,24.29,0,0,1-1.86,6,25.62,25.62,0,0,1-7.18,9.37c-.33.27-.66.53-1,.78s-.69.49-1,.73a.08.08,0,0,1,0,0,.07.07,0,0,0,0,0,23.54,23.54,0,0,1-3.29,1.85,25.75,25.75,0,0,1-5.22,1.8,26.3,26.3,0,0,1-5.65.62h0a25.31,25.31,0,0,1-10.87-2.42,23.54,23.54,0,0,1-3.29-1.85.07.07,0,0,0,0,0l0,0c-.35-.24-.7-.48-1-.73s-.67-.51-1-.78A25.62,25.62,0,0,1,106.07,45a24.29,24.29,0,0,1-1.86-6c0-.19-.07-.39-.1-.59a4.1,4.1,0,0,0-.06.49,23.59,23.59,0,0,0-.23,3.38,24.5,24.5,0,0,0,.37,4.31,25.14,25.14,0,0,0,1.94,6.33c.26.58.54,1.14.85,1.69a20.79,20.79,0,0,1-8.75,6h0a21,21,0,0,1-7.06,1.22A20.74,20.74,0,0,1,78.3,57.38a20.74,20.74,0,0,1-2.74-10.33A20.45,20.45,0,0,1,76,43c-.21-.23-.4-.48-.58-.72A20.79,20.79,0,0,1,71.54,34a19.16,19.16,0,0,1-.35-2.41,113.77,113.77,0,0,1,116.59,0Z"/></g><g id="Mountain"><path class="cls-7" d="M240.91,153.57a113.52,113.52,0,0,1-14.4,35.69c-.1.17-.21.34-.32.51H32.77c-.59-.94-1.17-1.89-1.72-2.85-.47-.78-.92-1.57-1.34-2.36a112.48,112.48,0,0,1-11.66-31h0l.17-.08c1.21-.64,2.63-1.41,4.24-2.32l1.05-.59c1.08-.61,2.23-1.27,3.45-2l1.23-.74c1.69-1,3.51-2.11,5.44-3.33l1.47-.93c1-.62,2-1.28,3.06-2l1.59-1.05c1.07-.7,2.17-1.44,3.3-2.21.83-.56,1.68-1.14,2.54-1.74,2-1.42,4.16-2.91,6.34-4.5q1.86-1.35,3.78-2.79l1.85-1.39c1.24-.94,2.5-1.9,3.78-2.9l1.93-1.51.36-.29c1.35-1.07,2.73-2.17,4.12-3.31l2.09-1.71q2.11-1.73,4.27-3.57t4.35-3.75l2.2-1.94q3.32-3,6.72-6.11l2.27-2.13q2.28-2.13,4.59-4.4c.2-.18.39-.37.59-.57,1.31-1.29,2.62-2.58,3.94-3.9q5.87-5.91,11.86-12.43h37.71l.21.23h0q1.62,1.77,3.25,3.49s0,0,0,0C191.53,125.47,228.24,146.89,240.91,153.57Z"/><path class="cls-8" d="M222.42,184s-6.86-44.09-92.94-64.73c-12.82-3.07-29.79-17.85-11.5-30.19a21,21,0,0,1,4.45-1.58c13.82-3.19,21.67-5.81,26.12-7.82q1.62,1.77,3.25,3.49c3.51,9.45,12.4,25.6,34.85,46.33C223.46,163.45,222.42,184,222.42,184Z"/><path class="cls-9" d="M223.71,189.77H194.35c-.24-6.6-6.84-20.1-45.46-40.42-43.36-22.8-45.38-29.77-45.38-29.77s-3.56,12.25,14,32.87c15.67,18.44,17.83,27,15.66,37.32H121.65L77.92,174.1l.21-.07c14.47-13.53,19.05-25.1,15.44-44.56-2.52-13.58,2.15-29.35,5.19-37.62q5.86-5.91,11.86-12.43h37.71l.22.23c-4.45,2-12.3,4.63-26.12,7.82-18.74,4.33-27.16,33.81,7,39.7C163.06,133,217.48,150.11,223.71,189.77Z"/><path class="cls-10" d="M94.71,139l0,1c0,.7,0,1.4,0,2.08q0,1.46-.15,2.85l-.09.92c0,.3-.07.61-.11.91-.13.91-.28,1.8-.46,2.67-.12.59-.26,1.17-.41,1.74l-.18.66c-.1.34-.2.69-.31,1v0a2.25,2.25,0,0,0-.08.24c-.07.19-.14.39-.2.58s-.19.55-.3.83c-.31.83-.65,1.64-1,2.45q-.18.4-.39.81c-.13.27-.26.54-.4.8s-.28.54-.43.8-.29.52-.44.78c-.31.53-.63,1.06-1,1.59-.17.27-.34.53-.52.79s-.51.75-.78,1.13c-.16.22-.31.44-.48.66s-.48.64-.73,1c-.7.9-1.44,1.8-2.23,2.7l-.67.75-.68.75-.71.76c-.48.5-1,1-1.48,1.51l-.77.76-.8.77c-.26.26-.54.51-.81.77l-.21.07L73,175.66l-28,8.89-14,2.37c-.47-.78-.92-1.57-1.34-2.36a112.48,112.48,0,0,1-11.66-31l.17-.09c1.21-.64,2.63-1.41,4.24-2.32l1.05-.59c1.08-.61,2.23-1.27,3.45-2l1.23-.74c1.69-1,3.51-2.11,5.44-3.33l1.47-.93c1-.62,2-1.28,3.06-2l1.59-1.05c1.07-.7,2.17-1.44,3.3-2.21.83-.56,1.68-1.14,2.54-1.74,2-1.42,4.16-2.91,6.34-4.5q1.86-1.35,3.78-2.79l1.85-1.39c1.24-.94,2.5-1.9,3.78-2.9l1.93-1.51.36-.29c1.35-1.06,2.73-2.17,4.12-3.31.69-.55,1.39-1.12,2.09-1.71q2.11-1.73,4.27-3.57t4.35-3.75l2.2-1.94Q84,106,87.38,102.85c.75-.69,1.51-1.4,2.27-2.13q2.28-2.13,4.59-4.4c.2-.18.39-.37.59-.57,1.31-1.27,2.62-2.58,3.94-3.9-3,8.27-7.71,24-5.19,37.62.19,1.05.37,2.07.51,3.08s.27,2,.37,2.95c.05.48.09.95.13,1.43s0,.68.07,1S94.7,138.62,94.71,139Z"/></g><g id="Waves"><path class="cls-11" d="M232.89,177.43a112.07,112.07,0,0,1-6.38,11.83c-.1.17-.21.34-.32.51a114.05,114.05,0,0,1-193.42,0c-.59-.94-1.17-1.89-1.72-2.85-.47-.78-.92-1.57-1.34-2.36,5.3-4.34,17.82-12.4,40.22-15.46A134,134,0,0,1,84.06,168c12.65-.38,27.69.79,45.43,4.48l2,.4c23.94,4.88,43.57,6.94,59.21,7.47a208.17,208.17,0,0,0,30.15-.95l.24,0,.74-.09C226.45,178.69,230.13,178,232.89,177.43Z"/><path class="cls-12" d="M232.89,177.43a112.07,112.07,0,0,1-6.38,11.83l-2.91-.15c-14.44-.73-22.67-1-29.4-.9-13.58.09-21.06,1.28-61.06,1.54l-3.65,0h-1.31c-2.35,0-4.6,0-6.77-.09h0c-30.47-.87-43.22-7.58-48.38-14a14.76,14.76,0,0,1-3.09-6.56A134,134,0,0,1,84.06,168c12.65-.38,27.69.79,45.43,4.48l2,.4c23.94,4.88,43.57,6.94,59.21,7.47a208.17,208.17,0,0,0,30.15-.95l.24,0,.74-.09C226.45,178.69,230.13,178,232.89,177.43Z"/><path class="cls-13" d="M217.6,201.72a113.63,113.63,0,0,1-88.12,41.76A113.82,113.82,0,0,1,46.93,208c10.2.74,37.4,1,82.55-10.73C174,185.74,205.1,196,217.6,201.72Z"/><path class="cls-14" d="M193.19,224a113.81,113.81,0,0,1-126.54.58,98.18,98.18,0,0,1,25.59-10.17l.1,0,.15,0c1.22-.3,2.48-.57,3.76-.82q.78-.17,1.59-.3c.76-.15,1.54-.28,2.33-.4s1.68-.25,2.54-.36l2-.22,1-.1c.75-.08,1.52-.14,2.3-.19l1.56-.1a91.77,91.77,0,0,1,28.87,3.07c2.52.68,5,1.31,7.31,1.89l2.33.57,2.85.67,2.61.59c5.52,1.22,10.55,2.17,15.11,2.91l3.51.54,1.68.24,1.64.22,1.58.2q3.12.39,5.85.63l1.34.12,1.3.1,1.24.09,1.19.08c.76,0,1.48.08,2.18.11l1.59.06Z"/><path class="cls-15" d="M193.19,224a113.78,113.78,0,0,1-29.75,14.34,81.17,81.17,0,0,1-24.83-12.94c-19.71-15-43.46-11.48-46.12-11,1.22-.3,2.48-.57,3.76-.82q.78-.17,1.59-.3c.76-.15,1.54-.28,2.33-.4s1.68-.25,2.54-.36l2-.22,1-.1c.75-.08,1.52-.14,2.3-.19l1.56-.1a91.77,91.77,0,0,1,28.87,3.07c2.52.68,5,1.31,7.31,1.89l2.33.57,2.85.67,2.61.59c5.52,1.22,10.55,2.17,15.11,2.91q1.8.3,3.51.54l1.68.24c.55.08,1.1.16,1.64.22s1.06.14,1.58.2q3.12.39,5.85.63l1.34.12,1.3.1,1.24.09,1.19.08c.76,0,1.48.08,2.18.11l1.59.06Z"/></g><g id="Outline"><path class="cls-16" d="M129.48,256A126.55,126.55,0,1,1,256,129.48,126.69,126.69,0,0,1,129.48,256Zm0-238A111.45,111.45,0,1,0,240.93,129.48,111.57,111.57,0,0,0,129.48,18Z"/><path class="cls-3" d="M129.48,5.43a124,124,0,1,1-124,124,124.19,124.19,0,0,1,124-124m0,238a114,114,0,1,0-113.95-114,114.08,114.08,0,0,0,114,114m0-243a129,129,0,1,0,129,129,129.19,129.19,0,0,0-129-129Zm0,238a109,109,0,1,1,109-109,109.07,109.07,0,0,1-109,109Z"/></g></g></g></svg>